<svg width="40" height="41" viewBox="0 0 40 41" fill="none" xmlns="http://www.w3.org/2000/svg">
<path d="M20 35.7C19.8874 35.7008 19.776 35.6769 19.6737 35.6299C19.5714 35.5829 19.4807 35.514 19.408 35.428L6.608 21.028C6.46721 20.8819 6.38855 20.6869 6.38855 20.484C6.38855 20.2811 6.46721 20.0861 6.608 19.94L11.408 15.14C11.483 15.059 11.5749 14.9955 11.6772 14.954C11.7796 14.9125 11.8898 14.8941 12 14.9H28C28.1049 14.8987 28.2089 14.9194 28.3054 14.9607C28.4018 15.0021 28.4886 15.0631 28.56 15.14L33.36 19.94C33.5008 20.0861 33.5794 20.2811 33.5794 20.484C33.5794 20.6869 33.5008 20.8819 33.36 21.028L20.56 35.428C20.4908 35.5099 20.4052 35.5764 20.3088 35.6233C20.2123 35.6701 20.1072 35.6963 20 35.7ZM8.304 20.532L20 33.7L31.696 20.532L27.664 16.5H12.336L8.304 20.532Z" fill="white"/>
<path d="M15.2 22.9L7.04 21.3C6.93394 21.281 6.83281 21.2407 6.74268 21.1817C6.65256 21.1226 6.57529 21.046 6.51552 20.9563C6.45575 20.8667 6.41471 20.7659 6.39486 20.6599C6.37501 20.554 6.37675 20.4452 6.4 20.34C6.41683 20.2329 6.45571 20.1304 6.51416 20.0391C6.57262 19.9478 6.64938 19.8696 6.7396 19.8094C6.82982 19.7493 6.93154 19.7085 7.03833 19.6896C7.14511 19.6708 7.25464 19.6743 7.36 19.7L15.36 21.3H24.8L32.64 19.7C32.7431 19.6767 32.8499 19.6745 32.9538 19.6935C33.0578 19.7126 33.1569 19.7524 33.2451 19.8107C33.3332 19.869 33.4087 19.9445 33.467 20.0327C33.5252 20.1209 33.565 20.22 33.584 20.324C33.605 20.427 33.6056 20.533 33.5856 20.6362C33.5656 20.7394 33.5255 20.8376 33.4676 20.9253C33.4096 21.0129 33.335 21.0883 33.2479 21.1471C33.1608 21.2059 33.063 21.247 32.96 21.268L24.96 22.868L15.2 22.9Z" fill="white"/>
<path d="M20 35.412C19.8299 35.4208 19.6613 35.3762 19.5178 35.2844C19.3744 35.1926 19.2632 35.0582 19.2 34.9L14.4 22.388C14.36 22.2359 14.36 22.0761 14.4 21.924L15.792 15.524C15.8151 15.4189 15.8587 15.3195 15.9202 15.2312C15.9818 15.143 16.0601 15.0678 16.1508 15.0099C16.2414 14.9519 16.3425 14.9124 16.4485 14.8935C16.5544 14.8747 16.6629 14.8769 16.768 14.9C16.8731 14.9231 16.9725 14.9667 17.0607 15.0282C17.149 15.0898 17.2242 15.1681 17.2821 15.2588C17.3401 15.3494 17.3796 15.4505 17.3985 15.5564C17.4173 15.6624 17.4151 15.7709 17.392 15.876L16 22.036L20.8 34.324C20.8385 34.4227 20.8571 34.528 20.8546 34.634C20.8521 34.7399 20.8286 34.8442 20.7854 34.941C20.7422 35.0377 20.6803 35.125 20.6031 35.1976C20.526 35.2702 20.4352 35.3268 20.336 35.364C20.228 35.4009 20.114 35.4172 20 35.412Z" fill="white"/>
<path d="M20 35.7C19.9046 35.7152 19.8074 35.7152 19.712 35.7C19.5169 35.6181 19.3604 35.465 19.2742 35.2718C19.188 35.0786 19.1786 34.8599 19.248 34.66L24.048 22.084L22.704 15.924C22.6573 15.7118 22.6968 15.4898 22.8138 15.3068C22.9309 15.1237 23.1158 14.9947 23.328 14.948C23.5401 14.9013 23.7622 14.9408 23.9452 15.0579C24.1282 15.1749 24.2573 15.3598 24.304 15.572L25.696 21.972C25.736 22.1241 25.736 22.2839 25.696 22.436L20.896 35.236C20.8203 35.4026 20.6908 35.5389 20.5283 35.6231C20.3658 35.7072 20.1797 35.7343 20 35.7ZM31.04 14.9H30.88C30.6754 14.8575 30.4955 14.7366 30.3789 14.5631C30.2623 14.3897 30.2182 14.1775 30.256 13.972C30.2397 13.9036 30.2397 13.8324 30.256 13.764C30.2633 13.47 30.2066 13.1779 30.09 12.9078C29.9734 12.6378 29.7995 12.3964 29.5804 12.2001C29.3614 12.0039 29.1023 11.8575 28.8211 11.7712C28.54 11.6848 28.2434 11.6605 27.952 11.7C27.8454 11.6939 27.7411 11.6666 27.6453 11.6197C27.5494 11.5727 27.4639 11.507 27.3939 11.4265C27.3238 11.346 27.2705 11.2523 27.2372 11.1508C27.2039 11.0494 27.1913 10.9424 27.2 10.836C27.2083 10.6351 27.2951 10.4455 27.4417 10.3079C27.5883 10.1703 27.783 10.0956 27.984 10.1C28.4925 10.0684 29.002 10.1436 29.4797 10.3209C29.9574 10.4982 30.3926 10.7735 30.7574 11.1293C31.1222 11.485 31.4084 11.9132 31.5976 12.3863C31.7868 12.8594 31.8748 13.3668 31.856 13.876C31.8714 14.0035 31.8714 14.1325 31.856 14.26C31.8181 14.4462 31.7152 14.6129 31.5657 14.7301C31.4162 14.8474 31.2298 14.9076 31.04 14.9Z" fill="white"/>
<path d="M31.056 14.644C30.9509 14.6379 30.848 14.6111 30.7533 14.5651C30.6585 14.5191 30.5738 14.4549 30.504 14.3761C30.4341 14.2974 30.3805 14.2056 30.3462 14.106C30.3118 14.0065 30.2975 13.9011 30.304 13.796C30.3222 13.2254 30.4769 12.6676 30.7553 12.1692C31.0338 11.6709 31.4277 11.2466 31.904 10.932C31.4186 10.5277 31.0248 10.0247 30.7489 9.4564C30.473 8.88808 30.3214 8.26751 30.304 7.636C30.304 7.42383 30.3883 7.22035 30.5383 7.07032C30.6884 6.92029 30.8919 6.836 31.104 6.836C31.3162 6.836 31.5197 6.92029 31.6697 7.07032C31.8197 7.22035 31.904 7.42383 31.904 7.636C31.9434 8.28757 32.2243 8.90106 32.6917 9.35667C33.1592 9.81229 33.7797 10.0773 34.432 10.1C34.6442 10.1 34.8477 10.1843 34.9977 10.3343C35.1477 10.4843 35.232 10.6878 35.232 10.9C35.232 11.1122 35.1477 11.3157 34.9977 11.4657C34.8477 11.6157 34.6442 11.7 34.432 11.7C34.176 11.7 31.984 11.86 31.856 13.844C31.856 14.0562 31.7717 14.2597 31.6217 14.4097C31.4717 14.5597 31.2682 14.644 31.056 14.644ZM8.83203 13.3C8.72217 13.3022 8.61301 13.2821 8.51108 13.2411C8.40915 13.2001 8.31656 13.1389 8.23887 13.0612C8.16117 12.9835 8.09997 12.8909 8.05893 12.789C8.01789 12.687 7.99785 12.5779 8.00003 12.468C7.97041 11.8556 8.10271 11.2463 8.3836 10.7014C8.6645 10.1564 9.08407 9.69514 9.60003 9.364C9.4324 9.25269 9.28154 9.118 9.15203 8.964C8.99929 8.82718 8.86485 8.67123 8.75203 8.5C7.95719 9.38984 6.86478 9.9588 5.68003 10.1C5.57488 10.1111 5.46858 10.1011 5.36728 10.0709C5.26598 10.0406 5.17169 9.9905 5.08986 9.92355C5.00802 9.8566 4.94028 9.77409 4.89053 9.68079C4.84078 9.58749 4.81002 9.48526 4.80003 9.38C4.77754 9.17011 4.83891 8.95984 4.97078 8.79501C5.10265 8.63017 5.29432 8.52413 5.50403 8.5C5.76003 8.5 8.00003 8.148 8.00003 6.084C8.00837 5.87039 8.10021 5.66857 8.25579 5.52196C8.41138 5.37535 8.61829 5.29565 8.83203 5.3C9.0414 5.30834 9.23915 5.39849 9.38276 5.55108C9.52637 5.70367 9.60438 5.90651 9.60003 6.116C9.57826 6.43746 9.62609 6.75982 9.74026 7.0611C9.85443 7.36238 10.0323 7.63549 10.2616 7.86178C10.4909 8.08808 10.7664 8.26224 11.0691 8.37238C11.3719 8.48252 11.6949 8.52606 12.016 8.5C12.22 8.50392 12.4148 8.58561 12.5605 8.72837C12.7062 8.87113 12.7919 9.06416 12.8 9.268C12.8092 9.47247 12.7397 9.67267 12.6058 9.82744C12.4718 9.9822 12.2837 10.0797 12.08 10.1C11.824 10.1 9.60003 10.404 9.60003 12.436C9.60874 12.5424 9.59607 12.6494 9.56277 12.7509C9.52947 12.8523 9.47622 12.946 9.40614 13.0265C9.33606 13.107 9.25058 13.1727 9.15473 13.2197C9.05888 13.2666 8.9546 13.294 8.84803 13.3H8.83203Z" fill="white"/>
</svg>
